<svg  viewBox="0 0 5 16" fill="none" xmlns="http://www.w3.org/2000/svg">
<path d="M1.36157 14C1.36157 13.4477 1.80929 13 2.36157 13C2.91386 13 3.36157 13.4477 3.36157 14C3.36157 14.5523 2.91386 15 2.36157 15C1.80929 15 1.36157 14.5523 1.36157 14Z" stroke="currentColor" stroke-width="2" stroke-linecap="round" stroke-linejoin="round"/>
<path d="M1.36157 8C1.36157 7.44772 1.80929 7 2.36157 7C2.91386 7 3.36157 7.44772 3.36157 8C3.36157 8.55228 2.91386 9 2.36157 9C1.80929 9 1.36157 8.55228 1.36157 8Z" stroke="currentColor" stroke-width="2" stroke-linecap="round" stroke-linejoin="round"/>
<path d="M1.36157 2C1.36157 1.44772 1.80929 1 2.36157 1C2.91386 1 3.36157 1.44772 3.36157 2C3.36157 2.55228 2.91386 3 2.36157 3C1.80929 3 1.36157 2.55228 1.36157 2Z" stroke="currentColor" stroke-width="2" stroke-linecap="round" stroke-linejoin="round"/>
</svg>
