<svg  viewBox="0 0 20 20" fill="none" xmlns="http://www.w3.org/2000/svg">
<path d="M16.6586 17.2472C17.2109 17.2472 17.6586 16.7994 17.6586 16.2472C17.6586 15.6949 17.2109 15.2472 16.6586 15.2472L16.6586 17.2472ZM3.20027 16.2471L3.20027 15.2471H3.20027V16.2471ZM2.4086 5.16382V4.16382C1.85632 4.16382 1.4086 4.61153 1.4086 5.16382H2.4086ZM15.6586 10.7055C15.6586 11.2578 16.1063 11.7055 16.6586 11.7055C17.2109 11.7055 17.6586 11.2578 17.6586 10.7055H15.6586ZM16.6586 15.2472L3.20027 15.2471L3.20027 17.2471L16.6586 17.2472L16.6586 15.2472ZM3.4086 15.4555V5.16382H1.4086V15.4555H3.4086ZM2.4086 6.16382H15.8669V4.16382H2.4086V6.16382ZM15.6586 5.95549V10.7055H17.6586V5.95549H15.6586ZM15.8669 6.16382C15.7519 6.16382 15.6586 6.07054 15.6586 5.95549H17.6586C17.6586 4.96598 16.8564 4.16382 15.8669 4.16382V6.16382ZM3.20027 15.2471C3.31532 15.2471 3.4086 15.3404 3.4086 15.4555H1.4086C1.4086 16.445 2.21076 17.2471 3.20027 17.2471V15.2471Z" fill="currentColor"/>
<path d="M3.45813 16.2472L16.0614 16.2472C16.4149 16.2472 16.7255 16.0129 16.8226 15.6731L17.9536 11.7147C18.0981 11.209 17.7184 10.7056 17.1924 10.7056L3.99193 10.7056L2.69693 15.2381C2.55243 15.7438 2.93217 16.2472 3.45813 16.2472Z" fill="currentColor"/>
<path d="M16.0614 16.2472L16.0614 17.2472L16.0614 16.2472ZM3.45813 16.2472L3.45813 15.2472L3.45813 16.2472ZM2.69693 15.2381L3.65845 15.5128L3.65845 15.5128L2.69693 15.2381ZM3.99193 10.7056L3.99193 9.70557C3.54545 9.70557 3.15306 10.0015 3.03041 10.4308L3.99193 10.7056ZM17.9536 11.7147L16.9921 11.44L16.9921 11.44L17.9536 11.7147ZM16.8226 15.6731L17.7842 15.9478L17.7842 15.9478L16.8226 15.6731ZM17.1924 10.7056L17.1924 9.70557H17.1924L17.1924 10.7056ZM16.0614 15.2472L3.45813 15.2472L3.45813 17.2472L16.0614 17.2472L16.0614 15.2472ZM3.65845 15.5128L4.95345 10.9803L3.03041 10.4308L1.7354 14.9634L3.65845 15.5128ZM16.9921 11.44L15.8611 15.3983L17.7842 15.9478L18.9151 11.9894L16.9921 11.44ZM3.99193 11.7056L17.1924 11.7056L17.1924 9.70557L3.99193 9.70557L3.99193 11.7056ZM18.9151 11.9894C19.2421 10.8449 18.3827 9.70557 17.1924 9.70557L17.1924 11.7056C17.054 11.7056 16.9541 11.5731 16.9921 11.44L18.9151 11.9894ZM3.45813 15.2472C3.59654 15.2472 3.69648 15.3797 3.65845 15.5128L1.7354 14.9634C1.40839 16.1079 2.26779 17.2472 3.45813 17.2472L3.45813 15.2472ZM16.0614 17.2472C16.8614 17.2472 17.5644 16.7169 17.7842 15.9478L15.8611 15.3983C15.8867 15.3089 15.9684 15.2472 16.0614 15.2472L16.0614 17.2472Z" fill="currentColor"/>
<path d="M9.5336 5.1639L8.18214 3.81244C8.03367 3.66397 7.83231 3.58057 7.62235 3.58057H3.20027C2.76304 3.58057 2.4086 3.93501 2.4086 4.37223V5.1639" stroke="currentColor" stroke-width="2" stroke-linecap="round" stroke-linejoin="round"/>
</svg>
