<svg  viewBox="0 0 16 11" fill="none" xmlns="http://www.w3.org/2000/svg">
<path d="M1.38259 10.4316H15.0499C15.5197 10.4316 15.9041 10.0472 15.9041 9.57743C15.9041 9.10762 15.5197 8.72323 15.0499 8.72323H1.38259C0.912775 8.72323 0.528381 9.10762 0.528381 9.57743C0.528381 10.0472 0.912775 10.4316 1.38259 10.4316ZM1.38259 6.1606H15.0499C15.5197 6.1606 15.9041 5.77621 15.9041 5.3064C15.9041 4.83658 15.5197 4.45219 15.0499 4.45219H1.38259C0.912775 4.45219 0.528381 4.83658 0.528381 5.3064C0.528381 5.77621 0.912775 6.1606 1.38259 6.1606ZM0.528381 1.03536C0.528381 1.50517 0.912775 1.88957 1.38259 1.88957H15.0499C15.5197 1.88957 15.9041 1.50517 15.9041 1.03536C15.9041 0.565546 15.5197 0.181152 15.0499 0.181152H1.38259C0.912775 0.181152 0.528381 0.565546 0.528381 1.03536Z" fill="currentColor"/>
</svg>
