<svg viewBox="0 0 17 18" fill="none" xmlns="http://www.w3.org/2000/svg">
<path d="M15.7759 6.76333L8.73843 0.605559C8.35939 0.273896 7.79342 0.273896 7.41438 0.605558L0.376922 6.76333C0.158746 6.95423 0.0335999 7.23003 0.0335999 7.51993V16.1119C0.0335999 16.6671 0.483711 17.1172 1.03895 17.1172H5.06035C5.61559 17.1172 6.0657 16.6671 6.0657 16.1119V12.0905C6.0657 11.5352 6.51581 11.0851 7.07105 11.0851H9.08175C9.63699 11.0851 10.0871 11.5352 10.0871 12.0905V16.1119C10.0871 16.6671 10.5372 17.1172 11.0925 17.1172H15.1139C15.6691 17.1172 16.1192 16.6671 16.1192 16.1119V7.51993C16.1192 7.23003 15.9941 6.95423 15.7759 6.76333Z" fill="currentColor"/>
</svg>
