<svg viewBox="0 0 22 23" fill="none" xmlns="http://www.w3.org/2000/svg">
<path d="M11 16.2166C13.7614 16.2166 16 13.978 16 11.2166C16 8.45513 13.7614 6.21655 11 6.21655C8.23858 6.21655 6 8.45513 6 11.2166C6 13.978 8.23858 16.2166 11 16.2166Z" fill="currentColor"/>
<path d="M11 3.21655V1.21655M11 19.2166V21.2166M5.41421 5.63077L4 4.21655M16.7279 16.9445L18.1421 18.3587M3 11.2166H1M19 11.2166H21M16.7279 5.63077L18.1421 4.21655M5.41417 16.9445L3.99995 18.3587M16 11.2166C16 13.978 13.7614 16.2166 11 16.2166C8.23858 16.2166 6 13.978 6 11.2166C6 8.45513 8.23858 6.21655 11 6.21655C13.7614 6.21655 16 8.45513 16 11.2166Z" stroke="currentColor" stroke-width="2" stroke-linecap="round" stroke-linejoin="round"/>
</svg>
