<svg viewBox="0 0 54 15" fill="none" xmlns="http://www.w3.org/2000/svg">
<path d="M6.60567 4.48797V6.53342H0.693025V4.48797H6.60567ZM2.03536 2.1357H4.75837V11.2891C4.75837 11.5405 4.79672 11.7365 4.87342 11.8772C4.95013 12.0135 5.05666 12.1094 5.19303 12.1648C5.33365 12.2202 5.49558 12.2479 5.67882 12.2479C5.80666 12.2479 5.9345 12.2373 6.06234 12.216C6.19018 12.1904 6.2882 12.1712 6.35638 12.1584L6.78464 14.1847C6.64828 14.2273 6.45652 14.2763 6.20936 14.3317C5.9622 14.3914 5.66178 14.4276 5.30808 14.4404C4.65183 14.466 4.07655 14.3786 3.58223 14.1783C3.09217 13.978 2.71078 13.6669 2.43805 13.2451C2.16533 12.8232 2.03109 12.2905 2.03536 11.6471V2.1357ZM11.7995 14.3062V4.48797H14.5225V14.3062H11.7995ZM13.1674 3.22235C12.7625 3.22235 12.4152 3.08811 12.1255 2.81965C11.8399 2.54692 11.6972 2.22092 11.6972 1.84166C11.6972 1.46666 11.8399 1.14493 12.1255 0.876465C12.4152 0.603737 12.7625 0.467373 13.1674 0.467373C13.5722 0.467373 13.9174 0.603737 14.2029 0.876465C14.4926 1.14493 14.6375 1.46666 14.6375 1.84166C14.6375 2.22092 14.4926 2.54692 14.2029 2.81965C13.9174 3.08811 13.5722 3.22235 13.1674 3.22235ZM22.5911 11.4809L22.5975 8.21453H22.9938L26.1387 4.48797H29.2644L25.0392 9.42263H24.3936L22.5911 11.4809ZM20.1238 14.3062V1.21524H22.8468V14.3062H20.1238ZM26.2601 14.3062L23.3709 10.0299L25.1863 8.10587L29.4498 14.3062H26.2601ZM38.0905 14.4979C37.0805 14.4979 36.2112 14.2934 35.4825 13.8843C34.7581 13.4709 34.1998 12.8871 33.8078 12.1329C33.4157 11.3743 33.2197 10.4773 33.2197 9.44181C33.2197 8.43186 33.4157 7.5455 33.8078 6.78271C34.1998 6.01993 34.7517 5.42547 35.4633 4.99933C36.1792 4.5732 37.0187 4.36013 37.9818 4.36013C38.6295 4.36013 39.2325 4.46453 39.7907 4.67334C40.3532 4.87789 40.8433 5.18683 41.2609 5.60019C41.6828 6.01354 42.0109 6.53342 42.2453 7.15985C42.4797 7.782 42.5968 8.5107 42.5968 9.34592V10.0938H34.3064V8.40629H40.0336C40.0336 8.01425 39.9484 7.66695 39.778 7.36439C39.6075 7.06183 39.371 6.82533 39.0684 6.65487C38.7701 6.48016 38.4228 6.3928 38.0265 6.3928C37.6132 6.3928 37.2467 6.48868 36.9271 6.68044C36.6118 6.86794 36.3646 7.12149 36.1856 7.4411C36.0066 7.75644 35.915 8.108 35.9108 8.49578V10.1002C35.9108 10.586 36.0003 11.0057 36.1792 11.3594C36.3625 11.7131 36.6203 11.9858 36.9527 12.1776C37.2851 12.3694 37.6792 12.4652 38.1352 12.4652C38.4378 12.4652 38.7147 12.4226 38.9662 12.3374C39.2176 12.2522 39.4328 12.1243 39.6118 11.9539C39.7907 11.7834 39.9271 11.5746 40.0209 11.3275L42.5393 11.4937C42.4115 12.0988 42.1494 12.6272 41.7531 13.0789C41.3611 13.5263 40.854 13.8758 40.2318 14.1272C39.6139 14.3743 38.9001 14.4979 38.0905 14.4979ZM53.0161 4.48797V6.53342H47.1035V4.48797H53.0161ZM48.4458 2.1357H51.1688V11.2891C51.1688 11.5405 51.2072 11.7365 51.2839 11.8772C51.3606 12.0135 51.4671 12.1094 51.6035 12.1648C51.7441 12.2202 51.9061 12.2479 52.0893 12.2479C52.2171 12.2479 52.345 12.2373 52.4728 12.216C52.6007 12.1904 52.6987 12.1712 52.7668 12.1584L53.1951 14.1847C53.0588 14.2273 52.867 14.2763 52.6198 14.3317C52.3727 14.3914 52.0722 14.4276 51.7186 14.4404C51.0623 14.466 50.487 14.3786 49.9927 14.1783C49.5026 13.978 49.1213 13.6669 48.8485 13.2451C48.5758 12.8232 48.4416 12.2905 48.4458 11.6471V2.1357Z" fill="currentColor"/>
</svg>
