<svg viewBox="0 0 23 22" fill="none" xmlns="http://www.w3.org/2000/svg">
<path d="M11.3405 0.378174C5.16525 0.378174 0.153442 5.22146 0.153442 11.1891C0.153442 17.1567 5.16525 22 11.3405 22C17.5158 22 22.5276 17.1567 22.5276 11.1891C22.5276 5.22146 17.5158 0.378174 11.3405 0.378174ZM11.3405 3.62145C13.1976 3.62145 14.6966 5.07011 14.6966 6.86472C14.6966 8.65933 13.1976 10.108 11.3405 10.108C9.48346 10.108 7.98439 8.65933 7.98439 6.86472C7.98439 5.07011 9.48346 3.62145 11.3405 3.62145ZM11.3405 18.9729C8.54374 18.9729 6.0714 17.5891 4.62827 15.4918C4.66183 13.3404 9.1031 12.1621 11.3405 12.1621C13.5667 12.1621 18.0192 13.3404 18.0527 15.4918C16.6096 17.5891 14.1373 18.9729 11.3405 18.9729Z" fill="currentColor"/>
</svg>
