<svg viewBox="0 0 18 18" fill="none" xmlns="http://www.w3.org/2000/svg">
<path d="M13.1954 11.2697H12.4054L12.1255 10.9997C13.3254 9.59967 13.9454 7.68967 13.6054 5.65967C13.1354 2.87967 10.8154 0.659669 8.01545 0.319669C3.78545 -0.200331 0.22545 3.35967 0.74545 7.58967C1.08545 10.3897 3.30545 12.7097 6.08545 13.1797C8.11545 13.5197 10.0254 12.8997 11.4254 11.6997L11.6954 11.9797V12.7697L15.9454 17.0197C16.3554 17.4297 17.0254 17.4297 17.4354 17.0197C17.8454 16.6097 17.8454 15.9397 17.4354 15.5297L13.1954 11.2697ZM7.19545 11.2697C4.70545 11.2697 2.69545 9.25967 2.69545 6.76967C2.69545 4.27967 4.70545 2.26967 7.19545 2.26967C9.68545 2.26967 11.6954 4.27967 11.6954 6.76967C11.6954 9.25967 9.68545 11.2697 7.19545 11.2697Z" fill="currentColor"/>
</svg>
