<svg viewBox="0 0 19 19" fill="none" xmlns="http://www.w3.org/2000/svg">
<path d="M17.6992 5.96563L16.6032 4.86963C16.4546 4.721 16.1945 4.68381 16.0087 4.79538C15.3584 5.20407 14.5412 5.11117 14.0024 4.57249C13.4637 4.03383 13.3708 3.19777 13.7795 2.56619C13.8909 2.38037 13.8724 2.13896 13.7052 1.97167L12.6092 0.875668C12.1633 0.42979 11.4203 0.42979 10.9744 0.875668L8.1879 3.6622L9.33963 4.81393L8.67087 5.48269L7.51913 4.33096L0.738583 11.1115C0.292705 11.5574 0.292705 12.3004 0.738583 12.7463L1.83458 13.8423C1.98322 13.9909 2.22476 14.0281 2.41043 13.9166C3.04201 13.5264 3.85943 13.638 4.39822 14.1581C4.91837 14.6783 5.0298 15.4956 4.63976 16.1459C4.52832 16.3317 4.54685 16.5731 4.71401 16.7217L5.82869 17.8364C6.05157 18.0593 6.34884 18.1707 6.6461 18.1707C6.94336 18.1707 7.24063 18.0593 7.46352 17.8364L14.2441 11.0559L13.0923 9.90413L13.7611 9.23537L14.9128 10.3871L17.6994 7.60057C18.145 7.15469 18.145 6.41152 17.6992 5.96564L17.6992 5.96563ZM9.30245 6.13292L9.97121 5.46415L11.2159 6.7088L10.5471 7.37757L9.30245 6.13292ZM12.4233 9.25376L11.1786 8.00912L11.8474 7.34035L13.0921 8.585L12.4233 9.25376Z" fill="currentColor"/>
</svg>
