<svg viewBox="0 0 16 16" fill="none" xmlns="http://www.w3.org/2000/svg">
<path fill-rule="evenodd" clip-rule="evenodd" d="M3.89222 4.45995L8.41649 1.09044C9.55813 0.24004 11.1939 0.669581 11.7705 1.97104L12.8733 4.46008H13.3976C14.6231 4.46008 15.6165 5.4535 15.6165 6.67895V13.1875C15.6165 14.413 14.6231 15.4064 13.3976 15.4064H3.04309C1.81764 15.4064 0.824219 14.413 0.824219 13.1875V6.67895C0.824219 5.4535 1.81764 4.46008 3.04309 4.46008L3.89222 4.45995ZM10.6886 2.45035L11.579 4.45995H5.87335L9.12336 2.03938C9.65618 1.64252 10.4195 1.843 10.6886 2.45035H10.6886ZM3.04303 14.223H13.3975C13.9695 14.223 14.4331 13.7595 14.4331 13.1875V12.1521H10.7348C10.3263 12.1521 9.99525 11.8209 9.99525 11.4124V8.45398C9.99525 8.04549 10.3263 7.7144 10.7348 7.7144H14.4331V6.67888C14.4331 6.10695 13.9695 5.64337 13.3975 5.64337H3.04303C2.4711 5.64337 2.00751 6.10695 2.00751 6.67888V13.1875C2.00751 13.7594 2.4711 14.223 3.04303 14.223V14.223ZM14.4331 8.89775V10.9687H11.1787V8.89775H14.4331Z" fill="currentColor"/>
</svg>
